%TF.GenerationSoftware,KiCad,Pcbnew,9.0.5*%
%TF.CreationDate,2025-10-31T11:33:22+09:00*%
%TF.ProjectId,STM32F407VET6,53544d33-3246-4343-9037-564554362e6b,rev?*%
%TF.SameCoordinates,Original*%
%TF.FileFunction,Profile,NP*%
%FSLAX46Y46*%
G04 Gerber Fmt 4.6, Leading zero omitted, Abs format (unit mm)*
G04 Created by KiCad (PCBNEW 9.0.5) date 2025-10-31 11:33:22*
%MOMM*%
%LPD*%
G01*
G04 APERTURE LIST*
%TA.AperFunction,Profile*%
%ADD10C,0.050000*%
%TD*%
G04 APERTURE END LIST*
D10*
X218000000Y-40000000D02*
G75*
G02*
X220000000Y-42000000I0J-2000000D01*
G01*
X42000000Y-130000000D02*
G75*
G02*
X40000000Y-128000000I0J2000000D01*
G01*
X42000000Y-40000000D02*
X218000000Y-40000000D01*
X40000000Y-42000000D02*
X40000000Y-128000000D01*
X40000000Y-42000000D02*
G75*
G02*
X42000000Y-40000000I2000000J0D01*
G01*
X218600000Y-127000000D02*
G75*
G02*
X215400000Y-127000000I-1600000J0D01*
G01*
X215400000Y-127000000D02*
G75*
G02*
X218600000Y-127000000I1600000J0D01*
G01*
X42000000Y-130000000D02*
X218000000Y-130000000D01*
X220000000Y-128000000D02*
G75*
G02*
X218000000Y-130000000I-2000000J0D01*
G01*
X44600000Y-43000000D02*
G75*
G02*
X41400000Y-43000000I-1600000J0D01*
G01*
X41400000Y-43000000D02*
G75*
G02*
X44600000Y-43000000I1600000J0D01*
G01*
X220000000Y-128000000D02*
X220000000Y-42000000D01*
X218600000Y-43000000D02*
G75*
G02*
X215400000Y-43000000I-1600000J0D01*
G01*
X215400000Y-43000000D02*
G75*
G02*
X218600000Y-43000000I1600000J0D01*
G01*
X44600000Y-127000000D02*
G75*
G02*
X41400000Y-127000000I-1600000J0D01*
G01*
X41400000Y-127000000D02*
G75*
G02*
X44600000Y-127000000I1600000J0D01*
G01*
%TO.C,U1*%
X99920000Y-88840000D02*
G75*
G02*
X96920000Y-88840000I-1500000J0D01*
G01*
X96920000Y-88840000D02*
G75*
G02*
X99920000Y-88840000I1500000J0D01*
G01*
X99920000Y-126170000D02*
G75*
G02*
X96920000Y-126170000I-1500000J0D01*
G01*
X96920000Y-126170000D02*
G75*
G02*
X99920000Y-126170000I1500000J0D01*
G01*
X162400000Y-88840000D02*
G75*
G02*
X159400000Y-88840000I-1500000J0D01*
G01*
X159400000Y-88840000D02*
G75*
G02*
X162400000Y-88840000I1500000J0D01*
G01*
X162400000Y-126170000D02*
G75*
G02*
X159400000Y-126170000I-1500000J0D01*
G01*
X159400000Y-126170000D02*
G75*
G02*
X162400000Y-126170000I1500000J0D01*
G01*
%TO.C,J4*%
X177545000Y-60120000D02*
G75*
G02*
X174345000Y-60120000I-1600000J0D01*
G01*
X174345000Y-60120000D02*
G75*
G02*
X177545000Y-60120000I1600000J0D01*
G01*
X177545000Y-99120000D02*
G75*
G02*
X174345000Y-99120000I-1600000J0D01*
G01*
X174345000Y-99120000D02*
G75*
G02*
X177545000Y-99120000I1600000J0D01*
G01*
X205545000Y-60120000D02*
G75*
G02*
X202345000Y-60120000I-1600000J0D01*
G01*
X202345000Y-60120000D02*
G75*
G02*
X205545000Y-60120000I1600000J0D01*
G01*
X205545000Y-99120000D02*
G75*
G02*
X202345000Y-99120000I-1600000J0D01*
G01*
X202345000Y-99120000D02*
G75*
G02*
X205545000Y-99120000I1600000J0D01*
G01*
%TO.C,J2*%
X60870000Y-60120000D02*
G75*
G02*
X57670000Y-60120000I-1600000J0D01*
G01*
X57670000Y-60120000D02*
G75*
G02*
X60870000Y-60120000I1600000J0D01*
G01*
X60870000Y-99120000D02*
G75*
G02*
X57670000Y-99120000I-1600000J0D01*
G01*
X57670000Y-99120000D02*
G75*
G02*
X60870000Y-99120000I1600000J0D01*
G01*
X88870000Y-60120000D02*
G75*
G02*
X85670000Y-60120000I-1600000J0D01*
G01*
X85670000Y-60120000D02*
G75*
G02*
X88870000Y-60120000I1600000J0D01*
G01*
X88870000Y-99120000D02*
G75*
G02*
X85670000Y-99120000I-1600000J0D01*
G01*
X85670000Y-99120000D02*
G75*
G02*
X88870000Y-99120000I1600000J0D01*
G01*
%TD*%
M02*
