M48
; DRILL file {KiCad 9.0.5} date 2025-10-31T11:33:19+0900
; FORMAT={-:-/ absolute / metric / decimal}
; #@! TF.CreationDate,2025-10-31T11:33:19+09:00
; #@! TF.GenerationSoftware,Kicad,Pcbnew,9.0.5
; #@! TF.FileFunction,Plated,1,2,PTH
FMAT,2
METRIC
; #@! TA.AperFunction,Plated,PTH,ViaDrill
T1C0.300
; #@! TA.AperFunction,Plated,PTH,ComponentDrill
T2C0.800
; #@! TA.AperFunction,Plated,PTH,ComponentDrill
T3C0.900
; #@! TA.AperFunction,Plated,PTH,ComponentDrill
T4C1.000
; #@! TA.AperFunction,Plated,PTH,ComponentDrill
T5C1.200
; #@! TA.AperFunction,Plated,PTH,ComponentDrill
T6C1.500
; #@! TA.AperFunction,Plated,PTH,ComponentDrill
T7C1.600
; #@! TA.AperFunction,Plated,PTH,ComponentDrill
T8C2.500
; #@! TA.AperFunction,Plated,PTH,ComponentDrill
T9C2.600
; #@! TA.AperFunction,Plated,PTH,ComponentDrill
T10C2.700
%
G90
G05
T1
X54.81Y-120.35
X78.78Y-105.88
X84.86Y-110.09
X87.89Y-96.18
X90.31Y-51.38
X91.06Y-119.67
X91.13Y-121.46
X91.41Y-47.6
X94.69Y-84.04
X94.82Y-102.6
X101.71Y-47.6
X103.08Y-104.57
X108.07Y-101.09
X110.12Y-100.61
X110.78Y-47.6
X110.85Y-67.37
X113.95Y-66.63
X113.96Y-113.0
X116.35Y-105.27
X117.6Y-66.49
X119.85Y-47.6
X120.32Y-102.79
X121.42Y-111.31
X123.68Y-121.77
X124.56Y-123.15
X128.37Y-120.17
X128.88Y-47.6
X128.98Y-119.16
X131.72Y-101.07
X132.12Y-70.01
X132.64Y-71.07
X135.695Y-97.205
X136.44Y-57.67
X137.92Y-96.26
X137.96Y-47.6
X138.16Y-61.98
X138.46Y-94.62
X138.48Y-104.26
X139.16Y-98.32
X139.77Y-62.29
X140.12Y-63.33
X140.33Y-104.95
X141.82Y-99.13
X144.62Y-45.99
X144.89Y-104.21
X144.94Y-96.6
X146.37Y-43.74
X146.86Y-104.9
X147.81Y-122.13
X148.97Y-120.97
X149.62Y-119.18
X149.895Y-94.965
X151.46Y-72.24
X151.56Y-70.01
X152.16Y-117.22
X152.84Y-71.3
X152.87Y-73.58
X153.03Y-75.49
X154.01Y-74.58
X155.42Y-43.74
X158.85Y-94.92
X164.53Y-44.19
X167.95Y-68.47
X168.76Y-96.05
X172.47Y-113.42
X174.89Y-114.09
X177.49Y-84.11
X178.21Y-79.68
X179.52Y-62.16
X180.43Y-77.04
X180.43Y-80.49
X180.45Y-65.15
X180.46Y-67.02
X180.46Y-85.2
X181.58Y-67.8
X182.07Y-64.29
X182.1Y-65.98
X193.58Y-55.42
X193.655Y-69.05
X193.71Y-76.77
X194.75Y-81.45
X194.83Y-69.89
X194.91Y-73.31
X194.95Y-72.04
X194.99Y-70.77
X197.6Y-60.53
X198.24Y-81.82
X198.41Y-83.72
X199.99Y-85.17
X200.01Y-68.8
X200.13Y-79.68
X201.22Y-121.32
X203.39Y-70.77
X203.39Y-72.04
X203.42Y-73.31
X204.765Y-75.68
X204.77Y-85.3
X208.75Y-93.69
T2
X56.22Y-109.96
X56.22Y-112.5
X56.22Y-115.04
X56.22Y-117.58
X58.81Y-93.0
X61.35Y-93.0
X63.89Y-93.0
X66.43Y-93.0
X68.97Y-93.0
X69.77Y-126.38
X71.51Y-93.0
X72.27Y-126.38
X74.05Y-93.0
X74.77Y-126.38
X76.59Y-93.0
X77.28Y-43.62
X79.13Y-93.0
X79.78Y-43.62
X80.81Y-53.32
X81.67Y-93.0
X82.28Y-43.62
X83.35Y-50.78
X84.21Y-93.0
X85.89Y-53.32
X175.485Y-93.0
X178.025Y-93.0
X180.565Y-93.0
X183.105Y-93.0
X185.645Y-93.0
X188.185Y-93.0
X190.725Y-93.0
X193.265Y-93.0
X195.805Y-93.0
X198.345Y-93.0
X200.29Y-128.005
X200.885Y-93.0
X202.83Y-128.005
X205.37Y-128.005
X207.91Y-128.005
X210.45Y-128.005
X212.99Y-128.005
T3
X93.64Y-50.79
X93.64Y-53.33
X102.7Y-50.79
X102.7Y-53.33
X111.76Y-50.79
X111.76Y-53.33
X120.82Y-50.79
X120.82Y-53.33
X129.88Y-50.79
X129.88Y-53.33
X138.94Y-50.79
X138.94Y-53.33
X148.0Y-50.79
X148.0Y-53.33
X157.06Y-50.79
X157.06Y-53.33
X166.12Y-50.79
X166.12Y-53.33
X171.63Y-73.67
X171.63Y-75.829
X171.63Y-77.988
X171.63Y-80.147
X190.91Y-45.137
X190.91Y-47.677
X198.319Y-45.137
X198.319Y-47.677
T4
X85.48Y-105.94
X88.02Y-105.94
X90.56Y-105.94
X94.23Y-110.15
X94.23Y-112.65
X94.23Y-115.15
X102.99Y-87.57
X102.99Y-90.11
X102.99Y-124.9
X102.99Y-127.44
X105.53Y-87.57
X105.53Y-90.11
X105.53Y-124.9
X105.53Y-127.44
X108.07Y-87.57
X108.07Y-90.11
X108.07Y-124.9
X108.07Y-127.44
X108.73Y-110.15
X108.73Y-115.15
X110.61Y-87.57
X110.61Y-90.11
X110.61Y-124.9
X110.61Y-127.44
X113.15Y-87.57
X113.15Y-90.11
X113.15Y-124.9
X113.15Y-127.44
X115.69Y-87.57
X115.69Y-90.11
X115.69Y-124.9
X115.69Y-127.44
X118.23Y-87.57
X118.23Y-90.11
X118.23Y-124.9
X118.23Y-127.44
X120.77Y-87.57
X120.77Y-90.11
X120.77Y-124.9
X120.77Y-127.44
X123.31Y-87.57
X123.31Y-90.11
X123.31Y-124.9
X123.31Y-127.44
X125.85Y-87.57
X125.85Y-90.11
X125.85Y-124.9
X125.85Y-127.44
X128.39Y-87.57
X128.39Y-90.11
X128.39Y-124.9
X128.39Y-127.44
X130.93Y-87.57
X130.93Y-90.11
X130.93Y-124.9
X130.93Y-127.44
X133.47Y-87.57
X133.47Y-90.11
X133.47Y-124.9
X133.47Y-127.44
X136.01Y-87.57
X136.01Y-90.11
X136.01Y-124.9
X136.01Y-127.44
X138.55Y-87.57
X138.55Y-90.11
X138.55Y-124.9
X138.55Y-127.44
X141.09Y-87.57
X141.09Y-90.11
X141.09Y-124.9
X141.09Y-127.44
X143.63Y-87.57
X143.63Y-90.11
X143.63Y-124.9
X143.63Y-127.44
X146.17Y-87.57
X146.17Y-90.11
X146.17Y-124.9
X146.17Y-127.44
X148.71Y-87.57
X148.71Y-90.11
X148.71Y-124.9
X148.71Y-127.44
X151.24Y-110.15
X151.24Y-112.65
X151.24Y-115.15
X151.25Y-87.57
X151.25Y-90.11
X151.25Y-124.9
X151.25Y-127.44
X153.79Y-87.57
X153.79Y-90.11
X153.79Y-124.9
X153.79Y-127.44
X156.33Y-87.57
X156.33Y-90.11
X156.33Y-124.9
X156.33Y-127.44
X165.74Y-110.15
X165.74Y-115.15
X188.93Y-105.47
X191.47Y-105.47
X194.01Y-105.47
T5
X98.02Y-62.02
X100.56Y-62.02
X103.1Y-62.02
X105.64Y-62.02
X108.18Y-62.02
X110.72Y-62.02
X113.26Y-62.02
X115.8Y-62.02
X118.34Y-62.02
X120.88Y-62.02
X123.42Y-62.02
X123.735Y-110.15
X123.735Y-115.15
X125.96Y-62.02
X128.5Y-62.02
X131.04Y-62.02
X133.58Y-62.02
X136.12Y-62.02
X136.235Y-110.15
X136.235Y-115.15
T7
X64.74Y-61.67
X64.74Y-102.17
X82.44Y-61.67
X82.44Y-102.17
T8
X92.521Y-62.02
X92.521Y-93.021
X167.519Y-93.021
X167.52Y-62.02
T9
X48.0Y-53.0
X51.3Y-57.7
T10
X54.1Y-53.0
T6
G00X101.08Y-107.05
M15
G01X102.38Y-107.05
M16
G05
G00X101.08Y-118.25
M15
G01X102.38Y-118.25
M16
G05
G00X158.09Y-107.05
M15
G01X159.39Y-107.05
M16
G05
G00X158.09Y-118.25
M15
G01X159.39Y-118.25
M16
G05
M30
