%TF.GenerationSoftware,KiCad,Pcbnew,9.0.5*%
%TF.CreationDate,2025-10-31T11:33:22+09:00*%
%TF.ProjectId,STM32F407VET6,53544d33-3246-4343-9037-564554362e6b,rev?*%
%TF.SameCoordinates,Original*%
%TF.FileFunction,Soldermask,Top*%
%TF.FilePolarity,Negative*%
%FSLAX46Y46*%
G04 Gerber Fmt 4.6, Leading zero omitted, Abs format (unit mm)*
G04 Created by KiCad (PCBNEW 9.0.5) date 2025-10-31 11:33:22*
%MOMM*%
%LPD*%
G01*
G04 APERTURE LIST*
G04 Aperture macros list*
%AMRoundRect*
0 Rectangle with rounded corners*
0 $1 Rounding radius*
0 $2 $3 $4 $5 $6 $7 $8 $9 X,Y pos of 4 corners*
0 Add a 4 corners polygon primitive as box body*
4,1,4,$2,$3,$4,$5,$6,$7,$8,$9,$2,$3,0*
0 Add four circle primitives for the rounded corners*
1,1,$1+$1,$2,$3*
1,1,$1+$1,$4,$5*
1,1,$1+$1,$6,$7*
1,1,$1+$1,$8,$9*
0 Add four rect primitives between the rounded corners*
20,1,$1+$1,$2,$3,$4,$5,0*
20,1,$1+$1,$4,$5,$6,$7,0*
20,1,$1+$1,$6,$7,$8,$9,0*
20,1,$1+$1,$8,$9,$2,$3,0*%
G04 Aperture macros list end*
%ADD10RoundRect,0.200000X-0.275000X0.200000X-0.275000X-0.200000X0.275000X-0.200000X0.275000X0.200000X0*%
%ADD11RoundRect,0.200000X-0.200000X-0.275000X0.200000X-0.275000X0.200000X0.275000X-0.200000X0.275000X0*%
%ADD12RoundRect,0.150000X-0.150000X0.587500X-0.150000X-0.587500X0.150000X-0.587500X0.150000X0.587500X0*%
%ADD13R,2.600000X2.600000*%
%ADD14RoundRect,0.200000X0.200000X0.275000X-0.200000X0.275000X-0.200000X-0.275000X0.200000X-0.275000X0*%
%ADD15R,2.000000X2.000000*%
%ADD16C,2.000000*%
%ADD17R,3.200000X2.000000*%
%ADD18RoundRect,0.150000X0.587500X0.150000X-0.587500X0.150000X-0.587500X-0.150000X0.587500X-0.150000X0*%
%ADD19C,1.440000*%
%ADD20RoundRect,0.150000X0.150000X-0.587500X0.150000X0.587500X-0.150000X0.587500X-0.150000X-0.587500X0*%
%ADD21C,3.000000*%
%ADD22R,1.800000X2.600000*%
%ADD23O,1.800000X2.600000*%
%ADD24RoundRect,0.225000X0.225000X0.250000X-0.225000X0.250000X-0.225000X-0.250000X0.225000X-0.250000X0*%
%ADD25RoundRect,0.150000X-0.825000X-0.150000X0.825000X-0.150000X0.825000X0.150000X-0.825000X0.150000X0*%
%ADD26R,1.800000X1.800000*%
%ADD27C,1.800000*%
%ADD28RoundRect,0.225000X-0.225000X-0.250000X0.225000X-0.250000X0.225000X0.250000X-0.225000X0.250000X0*%
%ADD29C,3.700000*%
%ADD30O,3.000000X2.500000*%
%ADD31R,1.600000X1.600000*%
%ADD32C,1.600000*%
%ADD33R,1.500000X1.500000*%
%ADD34C,1.500000*%
%ADD35RoundRect,0.200000X0.275000X-0.200000X0.275000X0.200000X-0.275000X0.200000X-0.275000X-0.200000X0*%
%ADD36R,1.700000X1.700000*%
%ADD37C,1.700000*%
G04 APERTURE END LIST*
D10*
%TO.C,R3*%
X106700000Y-49510000D03*
X106700000Y-51160000D03*
%TD*%
D11*
%TO.C,R36*%
X188290000Y-79430000D03*
X189940000Y-79430000D03*
%TD*%
D12*
%TO.C,Q3*%
X121748750Y-45770000D03*
X119848750Y-45770000D03*
X120798750Y-47645000D03*
%TD*%
D13*
%TO.C,U3*%
X82440000Y-61670000D03*
X64740000Y-61670000D03*
X64740000Y-102170000D03*
X82440000Y-102170000D03*
%TD*%
D12*
%TO.C,Q1*%
X103646250Y-45770000D03*
X101746250Y-45770000D03*
X102696250Y-47645000D03*
%TD*%
D10*
%TO.C,R9*%
X133970000Y-49510000D03*
X133970000Y-51160000D03*
%TD*%
D12*
%TO.C,Q2*%
X112697500Y-45770000D03*
X110797500Y-45770000D03*
X111747500Y-47645000D03*
%TD*%
D14*
%TO.C,R23*%
X148901250Y-42510000D03*
X147251250Y-42510000D03*
%TD*%
%TO.C,R16*%
X63085000Y-125940000D03*
X61435000Y-125940000D03*
%TD*%
D15*
%TO.C,SW2*%
X94230000Y-110150000D03*
D16*
X94230000Y-115150000D03*
X94230000Y-112650000D03*
D17*
X101730000Y-107050000D03*
X101730000Y-118250000D03*
D16*
X108730000Y-115150000D03*
X108730000Y-110150000D03*
%TD*%
D14*
%TO.C,R10*%
X139854375Y-42510000D03*
X138204375Y-42510000D03*
%TD*%
D18*
%TO.C,Q12*%
X185690000Y-79430000D03*
X185690000Y-77530000D03*
X183815000Y-78480000D03*
%TD*%
D19*
%TO.C,RV1*%
X85890000Y-53320000D03*
X83350000Y-50780000D03*
X80810000Y-53320000D03*
%TD*%
D14*
%TO.C,R4*%
X112713750Y-42510000D03*
X111063750Y-42510000D03*
%TD*%
%TO.C,R15*%
X90855000Y-115633250D03*
X89205000Y-115633250D03*
%TD*%
D20*
%TO.C,Q11*%
X197420636Y-53072500D03*
X199320636Y-53072500D03*
X198370636Y-51197500D03*
%TD*%
D21*
%TO.C,DS1*%
X92520900Y-62020000D03*
X92520900Y-93020700D03*
X167519480Y-93020700D03*
X167520000Y-62020000D03*
D22*
X98020000Y-62020000D03*
D23*
X100560000Y-62020000D03*
X103100000Y-62020000D03*
X105640000Y-62020000D03*
X108180000Y-62020000D03*
X110720000Y-62020000D03*
X113260000Y-62020000D03*
X115800000Y-62020000D03*
X118340000Y-62020000D03*
X120880000Y-62020000D03*
X123420000Y-62020000D03*
X125960000Y-62020000D03*
X128500000Y-62020000D03*
X131040000Y-62020000D03*
X133580000Y-62020000D03*
X136120000Y-62020000D03*
%TD*%
D12*
%TO.C,Q7*%
X148902500Y-45770000D03*
X147002500Y-45770000D03*
X147952500Y-47645000D03*
%TD*%
D24*
%TO.C,C7*%
X193655000Y-81450000D03*
X192105000Y-81450000D03*
%TD*%
D25*
%TO.C,U5*%
X196760000Y-81337500D03*
X196760000Y-82607500D03*
X196760000Y-83877500D03*
X196760000Y-85147500D03*
X196760000Y-86417500D03*
X196760000Y-87687500D03*
X196760000Y-88957500D03*
X201710000Y-88957500D03*
X201710000Y-87687500D03*
X201710000Y-86417500D03*
X201710000Y-85147500D03*
X201710000Y-83877500D03*
X201710000Y-82607500D03*
X201710000Y-81337500D03*
%TD*%
D14*
%TO.C,R8*%
X130807500Y-42510000D03*
X129157500Y-42510000D03*
%TD*%
D10*
%TO.C,R29*%
X170240000Y-49490000D03*
X170240000Y-51140000D03*
%TD*%
D26*
%TO.C,D10*%
X198318818Y-47677500D03*
D27*
X198318818Y-45137500D03*
%TD*%
D12*
%TO.C,Q6*%
X139851250Y-45770000D03*
X137951250Y-45770000D03*
X138901250Y-47645000D03*
%TD*%
D11*
%TO.C,R30*%
X190115000Y-56130000D03*
X191765000Y-56130000D03*
%TD*%
%TO.C,R38*%
X188290000Y-83910000D03*
X189940000Y-83910000D03*
%TD*%
D26*
%TO.C,D9*%
X190910000Y-47677500D03*
D27*
X190910000Y-45137500D03*
%TD*%
D28*
%TO.C,C8*%
X204765000Y-81450000D03*
X206315000Y-81450000D03*
%TD*%
D11*
%TO.C,R35*%
X192125000Y-85720000D03*
X193775000Y-85720000D03*
%TD*%
D26*
%TO.C,D1*%
X102700000Y-50790000D03*
D27*
X102700000Y-53330000D03*
%TD*%
D11*
%TO.C,R40*%
X188290000Y-88260000D03*
X189940000Y-88260000D03*
%TD*%
D25*
%TO.C,U4*%
X196760000Y-68230000D03*
X196760000Y-69500000D03*
X196760000Y-70770000D03*
X196760000Y-72040000D03*
X196760000Y-73310000D03*
X196760000Y-74580000D03*
X196760000Y-75850000D03*
X201710000Y-75850000D03*
X201710000Y-74580000D03*
X201710000Y-73310000D03*
X201710000Y-72040000D03*
X201710000Y-70770000D03*
X201710000Y-69500000D03*
X201710000Y-68230000D03*
%TD*%
D26*
%TO.C,D5*%
X138940000Y-50790000D03*
D27*
X138940000Y-53330000D03*
%TD*%
D29*
%TO.C,J1*%
X54100000Y-53000000D03*
X48000000Y-53000000D03*
X51300000Y-57700000D03*
%TD*%
D30*
%TO.C,SW4*%
X123735000Y-110150000D03*
X136235000Y-110150000D03*
X123735000Y-115150000D03*
X136235000Y-115150000D03*
%TD*%
D28*
%TO.C,C5*%
X204765000Y-68190000D03*
X206315000Y-68190000D03*
%TD*%
%TO.C,C1*%
X112160000Y-110090000D03*
X113710000Y-110090000D03*
%TD*%
D14*
%TO.C,R6*%
X121760625Y-42510000D03*
X120110625Y-42510000D03*
%TD*%
D28*
%TO.C,C2*%
X169110000Y-110090000D03*
X170660000Y-110090000D03*
%TD*%
D14*
%TO.C,R14*%
X90855000Y-110090000D03*
X89205000Y-110090000D03*
%TD*%
D31*
%TO.C,SW1*%
X77280000Y-43620000D03*
D32*
X79780000Y-43620000D03*
X82280000Y-43620000D03*
%TD*%
D26*
%TO.C,D4*%
X129880000Y-50790000D03*
D27*
X129880000Y-53330000D03*
%TD*%
D33*
%TO.C,J6*%
X200290000Y-128005000D03*
D34*
X202830000Y-128005000D03*
X205370000Y-128005000D03*
X207910000Y-128005000D03*
X210450000Y-128005000D03*
X212990000Y-128005000D03*
%TD*%
D11*
%TO.C,R32*%
X197595636Y-56207500D03*
X199245636Y-56207500D03*
%TD*%
D12*
%TO.C,Q5*%
X130800000Y-45770000D03*
X128900000Y-45770000D03*
X129850000Y-47645000D03*
%TD*%
D11*
%TO.C,R33*%
X193770000Y-41900000D03*
X195420000Y-41900000D03*
%TD*%
D24*
%TO.C,C3*%
X141430000Y-110090000D03*
X139880000Y-110090000D03*
%TD*%
D12*
%TO.C,Q4*%
X94595000Y-45770000D03*
X92695000Y-45770000D03*
X93645000Y-47645000D03*
%TD*%
D35*
%TO.C,R31*%
X186330000Y-44270000D03*
X186330000Y-42620000D03*
%TD*%
D14*
%TO.C,R19*%
X147910000Y-115633250D03*
X146260000Y-115633250D03*
%TD*%
D26*
%TO.C,D2*%
X111760000Y-50790000D03*
D27*
X111760000Y-53330000D03*
%TD*%
D14*
%TO.C,R28*%
X166995000Y-42510000D03*
X165345000Y-42510000D03*
%TD*%
D26*
%TO.C,J7*%
X171630000Y-80147000D03*
D27*
X171630000Y-77988000D03*
X171630000Y-75829000D03*
X171630000Y-73670000D03*
%TD*%
D11*
%TO.C,R12*%
X68530000Y-48630000D03*
X70180000Y-48630000D03*
%TD*%
D14*
%TO.C,R2*%
X103666875Y-42510000D03*
X102016875Y-42510000D03*
%TD*%
D18*
%TO.C,Q14*%
X185690000Y-88330000D03*
X185690000Y-86430000D03*
X183815000Y-87380000D03*
%TD*%
D12*
%TO.C,Q9*%
X167005000Y-45770000D03*
X165105000Y-45770000D03*
X166055000Y-47645000D03*
%TD*%
D31*
%TO.C,SW6*%
X69770000Y-126380000D03*
D32*
X72270000Y-126380000D03*
X74770000Y-126380000D03*
%TD*%
D28*
%TO.C,C6*%
X82960000Y-123840000D03*
X84510000Y-123840000D03*
%TD*%
D14*
%TO.C,R18*%
X147910000Y-110090000D03*
X146260000Y-110090000D03*
%TD*%
D26*
%TO.C,D8*%
X166120000Y-50790000D03*
D27*
X166120000Y-53330000D03*
%TD*%
D15*
%TO.C,SW3*%
X151240000Y-110150000D03*
D16*
X151240000Y-115150000D03*
X151240000Y-112650000D03*
D17*
X158740000Y-107050000D03*
X158740000Y-118250000D03*
D16*
X165740000Y-115150000D03*
X165740000Y-110150000D03*
%TD*%
D10*
%TO.C,R27*%
X161150000Y-49490000D03*
X161150000Y-51140000D03*
%TD*%
D26*
%TO.C,D6*%
X148000000Y-50790000D03*
D27*
X148000000Y-53330000D03*
%TD*%
D26*
%TO.C,D7*%
X157060000Y-50790000D03*
D27*
X157060000Y-53330000D03*
%TD*%
D10*
%TO.C,R24*%
X152060000Y-49490000D03*
X152060000Y-51140000D03*
%TD*%
D24*
%TO.C,C4*%
X193655000Y-68190000D03*
X192105000Y-68190000D03*
%TD*%
D11*
%TO.C,R13*%
X68530000Y-53110000D03*
X70180000Y-53110000D03*
%TD*%
D26*
%TO.C,D13*%
X93640000Y-50790000D03*
D27*
X93640000Y-53330000D03*
%TD*%
D20*
%TO.C,Q10*%
X189870000Y-52710000D03*
X191770000Y-52710000D03*
X190820000Y-50835000D03*
%TD*%
D14*
%TO.C,R26*%
X157948125Y-42510000D03*
X156298125Y-42510000D03*
%TD*%
D11*
%TO.C,R17*%
X112110000Y-115633250D03*
X113760000Y-115633250D03*
%TD*%
D10*
%TO.C,R5*%
X115790000Y-49510000D03*
X115790000Y-51160000D03*
%TD*%
D11*
%TO.C,R22*%
X192055000Y-71960000D03*
X193705000Y-71960000D03*
%TD*%
D33*
%TO.C,U2*%
X56220000Y-109960000D03*
D34*
X56220000Y-112500000D03*
X56220000Y-115040000D03*
X56220000Y-117580000D03*
%TD*%
D11*
%TO.C,R20*%
X169060000Y-115633250D03*
X170710000Y-115633250D03*
%TD*%
D10*
%TO.C,R11*%
X142970000Y-49490000D03*
X142970000Y-51140000D03*
%TD*%
D18*
%TO.C,Q13*%
X185690000Y-83880000D03*
X185690000Y-81980000D03*
X183815000Y-82930000D03*
%TD*%
D26*
%TO.C,D3*%
X120820000Y-50790000D03*
D27*
X120820000Y-53330000D03*
%TD*%
D10*
%TO.C,R7*%
X124880000Y-49510000D03*
X124880000Y-51160000D03*
%TD*%
D14*
%TO.C,R25*%
X94620000Y-42510000D03*
X92970000Y-42510000D03*
%TD*%
D10*
%TO.C,R1*%
X97830000Y-49510000D03*
X97830000Y-51160000D03*
%TD*%
D11*
%TO.C,R21*%
X139830000Y-115633250D03*
X141480000Y-115633250D03*
%TD*%
%TO.C,R34*%
X82790000Y-126800000D03*
X84440000Y-126800000D03*
%TD*%
D12*
%TO.C,Q8*%
X157953750Y-45770000D03*
X156053750Y-45770000D03*
X157003750Y-47645000D03*
%TD*%
D36*
%TO.C,U1*%
X102990000Y-87570000D03*
D37*
X102990000Y-90110000D03*
X105530000Y-87570000D03*
X105530000Y-90110000D03*
X108070000Y-87570000D03*
X108070000Y-90110000D03*
X110610000Y-87570000D03*
X110610000Y-90110000D03*
X113150000Y-87570000D03*
X113150000Y-90110000D03*
X115690000Y-87570000D03*
X115690000Y-90110000D03*
X118230000Y-87570000D03*
X118230000Y-90110000D03*
X120770000Y-87570000D03*
X120770000Y-90110000D03*
X123310000Y-87570000D03*
X123310000Y-90110000D03*
X125850000Y-87570000D03*
X125850000Y-90110000D03*
X128390000Y-87570000D03*
X128390000Y-90110000D03*
X130930000Y-87570000D03*
X130930000Y-90110000D03*
X133470000Y-87570000D03*
X133470000Y-90110000D03*
X136010000Y-87570000D03*
X136010000Y-90110000D03*
X138550000Y-87570000D03*
X138550000Y-90110000D03*
X141090000Y-87570000D03*
X141090000Y-90110000D03*
X143630000Y-87570000D03*
X143630000Y-90110000D03*
X146170000Y-87570000D03*
X146170000Y-90110000D03*
X148710000Y-87570000D03*
X148710000Y-90110000D03*
X151250000Y-87570000D03*
X151250000Y-90110000D03*
X153790000Y-87570000D03*
X153790000Y-90110000D03*
X156330000Y-87570000D03*
X156330000Y-90110000D03*
D36*
X102990000Y-124900000D03*
D37*
X102990000Y-127440000D03*
X105530000Y-124900000D03*
X105530000Y-127440000D03*
X108070000Y-124900000D03*
X108070000Y-127440000D03*
X110610000Y-124900000D03*
X110610000Y-127440000D03*
X113150000Y-124900000D03*
X113150000Y-127440000D03*
X115690000Y-124900000D03*
X115690000Y-127440000D03*
X118230000Y-124900000D03*
X118230000Y-127440000D03*
X120770000Y-124900000D03*
X120770000Y-127440000D03*
X123310000Y-124900000D03*
X123310000Y-127440000D03*
X125850000Y-124900000D03*
X125850000Y-127440000D03*
X128390000Y-124900000D03*
X128390000Y-127440000D03*
X130930000Y-124900000D03*
X130930000Y-127440000D03*
X133470000Y-124900000D03*
X133470000Y-127440000D03*
X136010000Y-124900000D03*
X136010000Y-127440000D03*
X138550000Y-124900000D03*
X138550000Y-127440000D03*
X141090000Y-124900000D03*
X141090000Y-127440000D03*
X143630000Y-124900000D03*
X143630000Y-127440000D03*
X146170000Y-124900000D03*
X146170000Y-127440000D03*
X148710000Y-124900000D03*
X148710000Y-127440000D03*
X151250000Y-124900000D03*
X151250000Y-127440000D03*
X153790000Y-124900000D03*
X153790000Y-127440000D03*
X156330000Y-124900000D03*
X156330000Y-127440000D03*
%TD*%
D36*
%TO.C,J5*%
X194010000Y-105470000D03*
D37*
X191470000Y-105470000D03*
X188930000Y-105470000D03*
%TD*%
D34*
%TO.C,J4*%
X200885000Y-93000000D03*
X198345000Y-93000000D03*
X195805000Y-93000000D03*
X193265000Y-93000000D03*
X190725000Y-93000000D03*
X188185000Y-93000000D03*
X185645000Y-93000000D03*
X183105000Y-93000000D03*
X180565000Y-93000000D03*
X178025000Y-93000000D03*
D33*
X175485000Y-93000000D03*
%TD*%
D34*
%TO.C,J2*%
X84210000Y-93000000D03*
X81670000Y-93000000D03*
X79130000Y-93000000D03*
X76590000Y-93000000D03*
X74050000Y-93000000D03*
X71510000Y-93000000D03*
X68970000Y-93000000D03*
X66430000Y-93000000D03*
X63890000Y-93000000D03*
X61350000Y-93000000D03*
D33*
X58810000Y-93000000D03*
%TD*%
D36*
%TO.C,J3*%
X90560000Y-105940000D03*
D37*
X88020000Y-105940000D03*
X85480000Y-105940000D03*
%TD*%
M02*
