%TF.GenerationSoftware,KiCad,Pcbnew,9.0.5*%
%TF.CreationDate,2025-10-31T11:33:22+09:00*%
%TF.ProjectId,STM32F407VET6,53544d33-3246-4343-9037-564554362e6b,rev?*%
%TF.SameCoordinates,Original*%
%TF.FileFunction,Soldermask,Bot*%
%TF.FilePolarity,Negative*%
%FSLAX46Y46*%
G04 Gerber Fmt 4.6, Leading zero omitted, Abs format (unit mm)*
G04 Created by KiCad (PCBNEW 9.0.5) date 2025-10-31 11:33:22*
%MOMM*%
%LPD*%
G01*
G04 APERTURE LIST*
%ADD10R,2.600000X2.600000*%
%ADD11R,2.000000X2.000000*%
%ADD12C,2.000000*%
%ADD13R,3.200000X2.000000*%
%ADD14C,1.440000*%
%ADD15C,3.000000*%
%ADD16R,1.800000X2.600000*%
%ADD17O,1.800000X2.600000*%
%ADD18R,1.800000X1.800000*%
%ADD19C,1.800000*%
%ADD20C,3.700000*%
%ADD21O,3.000000X2.500000*%
%ADD22R,1.600000X1.600000*%
%ADD23C,1.600000*%
%ADD24R,1.500000X1.500000*%
%ADD25C,1.500000*%
%ADD26R,1.700000X1.700000*%
%ADD27C,1.700000*%
G04 APERTURE END LIST*
D10*
%TO.C,U3*%
X82440000Y-61670000D03*
X64740000Y-61670000D03*
X64740000Y-102170000D03*
X82440000Y-102170000D03*
%TD*%
D11*
%TO.C,SW2*%
X94230000Y-110150000D03*
D12*
X94230000Y-115150000D03*
X94230000Y-112650000D03*
D13*
X101730000Y-107050000D03*
X101730000Y-118250000D03*
D12*
X108730000Y-115150000D03*
X108730000Y-110150000D03*
%TD*%
D14*
%TO.C,RV1*%
X85890000Y-53320000D03*
X83350000Y-50780000D03*
X80810000Y-53320000D03*
%TD*%
D15*
%TO.C,DS1*%
X92520900Y-62020000D03*
X92520900Y-93020700D03*
X167519480Y-93020700D03*
X167520000Y-62020000D03*
D16*
X98020000Y-62020000D03*
D17*
X100560000Y-62020000D03*
X103100000Y-62020000D03*
X105640000Y-62020000D03*
X108180000Y-62020000D03*
X110720000Y-62020000D03*
X113260000Y-62020000D03*
X115800000Y-62020000D03*
X118340000Y-62020000D03*
X120880000Y-62020000D03*
X123420000Y-62020000D03*
X125960000Y-62020000D03*
X128500000Y-62020000D03*
X131040000Y-62020000D03*
X133580000Y-62020000D03*
X136120000Y-62020000D03*
%TD*%
D18*
%TO.C,D10*%
X198318818Y-47677500D03*
D19*
X198318818Y-45137500D03*
%TD*%
D18*
%TO.C,D9*%
X190910000Y-47677500D03*
D19*
X190910000Y-45137500D03*
%TD*%
D18*
%TO.C,D1*%
X102700000Y-50790000D03*
D19*
X102700000Y-53330000D03*
%TD*%
D18*
%TO.C,D5*%
X138940000Y-50790000D03*
D19*
X138940000Y-53330000D03*
%TD*%
D20*
%TO.C,J1*%
X54100000Y-53000000D03*
X48000000Y-53000000D03*
X51300000Y-57700000D03*
%TD*%
D21*
%TO.C,SW4*%
X123735000Y-110150000D03*
X136235000Y-110150000D03*
X123735000Y-115150000D03*
X136235000Y-115150000D03*
%TD*%
D22*
%TO.C,SW1*%
X77280000Y-43620000D03*
D23*
X79780000Y-43620000D03*
X82280000Y-43620000D03*
%TD*%
D18*
%TO.C,D4*%
X129880000Y-50790000D03*
D19*
X129880000Y-53330000D03*
%TD*%
D24*
%TO.C,J6*%
X200290000Y-128005000D03*
D25*
X202830000Y-128005000D03*
X205370000Y-128005000D03*
X207910000Y-128005000D03*
X210450000Y-128005000D03*
X212990000Y-128005000D03*
%TD*%
D18*
%TO.C,D2*%
X111760000Y-50790000D03*
D19*
X111760000Y-53330000D03*
%TD*%
D18*
%TO.C,J7*%
X171630000Y-80147000D03*
D19*
X171630000Y-77988000D03*
X171630000Y-75829000D03*
X171630000Y-73670000D03*
%TD*%
D22*
%TO.C,SW6*%
X69770000Y-126380000D03*
D23*
X72270000Y-126380000D03*
X74770000Y-126380000D03*
%TD*%
D18*
%TO.C,D8*%
X166120000Y-50790000D03*
D19*
X166120000Y-53330000D03*
%TD*%
D11*
%TO.C,SW3*%
X151240000Y-110150000D03*
D12*
X151240000Y-115150000D03*
X151240000Y-112650000D03*
D13*
X158740000Y-107050000D03*
X158740000Y-118250000D03*
D12*
X165740000Y-115150000D03*
X165740000Y-110150000D03*
%TD*%
D18*
%TO.C,D6*%
X148000000Y-50790000D03*
D19*
X148000000Y-53330000D03*
%TD*%
D18*
%TO.C,D7*%
X157060000Y-50790000D03*
D19*
X157060000Y-53330000D03*
%TD*%
D18*
%TO.C,D13*%
X93640000Y-50790000D03*
D19*
X93640000Y-53330000D03*
%TD*%
D24*
%TO.C,U2*%
X56220000Y-109960000D03*
D25*
X56220000Y-112500000D03*
X56220000Y-115040000D03*
X56220000Y-117580000D03*
%TD*%
D18*
%TO.C,D3*%
X120820000Y-50790000D03*
D19*
X120820000Y-53330000D03*
%TD*%
D26*
%TO.C,U1*%
X102990000Y-87570000D03*
D27*
X102990000Y-90110000D03*
X105530000Y-87570000D03*
X105530000Y-90110000D03*
X108070000Y-87570000D03*
X108070000Y-90110000D03*
X110610000Y-87570000D03*
X110610000Y-90110000D03*
X113150000Y-87570000D03*
X113150000Y-90110000D03*
X115690000Y-87570000D03*
X115690000Y-90110000D03*
X118230000Y-87570000D03*
X118230000Y-90110000D03*
X120770000Y-87570000D03*
X120770000Y-90110000D03*
X123310000Y-87570000D03*
X123310000Y-90110000D03*
X125850000Y-87570000D03*
X125850000Y-90110000D03*
X128390000Y-87570000D03*
X128390000Y-90110000D03*
X130930000Y-87570000D03*
X130930000Y-90110000D03*
X133470000Y-87570000D03*
X133470000Y-90110000D03*
X136010000Y-87570000D03*
X136010000Y-90110000D03*
X138550000Y-87570000D03*
X138550000Y-90110000D03*
X141090000Y-87570000D03*
X141090000Y-90110000D03*
X143630000Y-87570000D03*
X143630000Y-90110000D03*
X146170000Y-87570000D03*
X146170000Y-90110000D03*
X148710000Y-87570000D03*
X148710000Y-90110000D03*
X151250000Y-87570000D03*
X151250000Y-90110000D03*
X153790000Y-87570000D03*
X153790000Y-90110000D03*
X156330000Y-87570000D03*
X156330000Y-90110000D03*
D26*
X102990000Y-124900000D03*
D27*
X102990000Y-127440000D03*
X105530000Y-124900000D03*
X105530000Y-127440000D03*
X108070000Y-124900000D03*
X108070000Y-127440000D03*
X110610000Y-124900000D03*
X110610000Y-127440000D03*
X113150000Y-124900000D03*
X113150000Y-127440000D03*
X115690000Y-124900000D03*
X115690000Y-127440000D03*
X118230000Y-124900000D03*
X118230000Y-127440000D03*
X120770000Y-124900000D03*
X120770000Y-127440000D03*
X123310000Y-124900000D03*
X123310000Y-127440000D03*
X125850000Y-124900000D03*
X125850000Y-127440000D03*
X128390000Y-124900000D03*
X128390000Y-127440000D03*
X130930000Y-124900000D03*
X130930000Y-127440000D03*
X133470000Y-124900000D03*
X133470000Y-127440000D03*
X136010000Y-124900000D03*
X136010000Y-127440000D03*
X138550000Y-124900000D03*
X138550000Y-127440000D03*
X141090000Y-124900000D03*
X141090000Y-127440000D03*
X143630000Y-124900000D03*
X143630000Y-127440000D03*
X146170000Y-124900000D03*
X146170000Y-127440000D03*
X148710000Y-124900000D03*
X148710000Y-127440000D03*
X151250000Y-124900000D03*
X151250000Y-127440000D03*
X153790000Y-124900000D03*
X153790000Y-127440000D03*
X156330000Y-124900000D03*
X156330000Y-127440000D03*
%TD*%
D26*
%TO.C,J5*%
X194010000Y-105470000D03*
D27*
X191470000Y-105470000D03*
X188930000Y-105470000D03*
%TD*%
D25*
%TO.C,J4*%
X200885000Y-93000000D03*
X198345000Y-93000000D03*
X195805000Y-93000000D03*
X193265000Y-93000000D03*
X190725000Y-93000000D03*
X188185000Y-93000000D03*
X185645000Y-93000000D03*
X183105000Y-93000000D03*
X180565000Y-93000000D03*
X178025000Y-93000000D03*
D24*
X175485000Y-93000000D03*
%TD*%
D25*
%TO.C,J2*%
X84210000Y-93000000D03*
X81670000Y-93000000D03*
X79130000Y-93000000D03*
X76590000Y-93000000D03*
X74050000Y-93000000D03*
X71510000Y-93000000D03*
X68970000Y-93000000D03*
X66430000Y-93000000D03*
X63890000Y-93000000D03*
X61350000Y-93000000D03*
D24*
X58810000Y-93000000D03*
%TD*%
D26*
%TO.C,J3*%
X90560000Y-105940000D03*
D27*
X88020000Y-105940000D03*
X85480000Y-105940000D03*
%TD*%
M02*
