%TF.GenerationSoftware,KiCad,Pcbnew,9.0.5*%
%TF.CreationDate,2025-10-31T11:33:22+09:00*%
%TF.ProjectId,STM32F407VET6,53544d33-3246-4343-9037-564554362e6b,rev?*%
%TF.SameCoordinates,Original*%
%TF.FileFunction,Paste,Top*%
%TF.FilePolarity,Positive*%
%FSLAX46Y46*%
G04 Gerber Fmt 4.6, Leading zero omitted, Abs format (unit mm)*
G04 Created by KiCad (PCBNEW 9.0.5) date 2025-10-31 11:33:22*
%MOMM*%
%LPD*%
G01*
G04 APERTURE LIST*
G04 Aperture macros list*
%AMRoundRect*
0 Rectangle with rounded corners*
0 $1 Rounding radius*
0 $2 $3 $4 $5 $6 $7 $8 $9 X,Y pos of 4 corners*
0 Add a 4 corners polygon primitive as box body*
4,1,4,$2,$3,$4,$5,$6,$7,$8,$9,$2,$3,0*
0 Add four circle primitives for the rounded corners*
1,1,$1+$1,$2,$3*
1,1,$1+$1,$4,$5*
1,1,$1+$1,$6,$7*
1,1,$1+$1,$8,$9*
0 Add four rect primitives between the rounded corners*
20,1,$1+$1,$2,$3,$4,$5,0*
20,1,$1+$1,$4,$5,$6,$7,0*
20,1,$1+$1,$6,$7,$8,$9,0*
20,1,$1+$1,$8,$9,$2,$3,0*%
G04 Aperture macros list end*
%ADD10RoundRect,0.200000X-0.275000X0.200000X-0.275000X-0.200000X0.275000X-0.200000X0.275000X0.200000X0*%
%ADD11RoundRect,0.200000X-0.200000X-0.275000X0.200000X-0.275000X0.200000X0.275000X-0.200000X0.275000X0*%
%ADD12RoundRect,0.150000X-0.150000X0.587500X-0.150000X-0.587500X0.150000X-0.587500X0.150000X0.587500X0*%
%ADD13RoundRect,0.200000X0.200000X0.275000X-0.200000X0.275000X-0.200000X-0.275000X0.200000X-0.275000X0*%
%ADD14RoundRect,0.150000X0.587500X0.150000X-0.587500X0.150000X-0.587500X-0.150000X0.587500X-0.150000X0*%
%ADD15RoundRect,0.150000X0.150000X-0.587500X0.150000X0.587500X-0.150000X0.587500X-0.150000X-0.587500X0*%
%ADD16RoundRect,0.225000X0.225000X0.250000X-0.225000X0.250000X-0.225000X-0.250000X0.225000X-0.250000X0*%
%ADD17RoundRect,0.150000X-0.825000X-0.150000X0.825000X-0.150000X0.825000X0.150000X-0.825000X0.150000X0*%
%ADD18RoundRect,0.225000X-0.225000X-0.250000X0.225000X-0.250000X0.225000X0.250000X-0.225000X0.250000X0*%
%ADD19RoundRect,0.200000X0.275000X-0.200000X0.275000X0.200000X-0.275000X0.200000X-0.275000X-0.200000X0*%
G04 APERTURE END LIST*
D10*
%TO.C,R3*%
X106700000Y-49510000D03*
X106700000Y-51160000D03*
%TD*%
D11*
%TO.C,R36*%
X188290000Y-79430000D03*
X189940000Y-79430000D03*
%TD*%
D12*
%TO.C,Q3*%
X121748750Y-45770000D03*
X119848750Y-45770000D03*
X120798750Y-47645000D03*
%TD*%
%TO.C,Q1*%
X103646250Y-45770000D03*
X101746250Y-45770000D03*
X102696250Y-47645000D03*
%TD*%
D10*
%TO.C,R9*%
X133970000Y-49510000D03*
X133970000Y-51160000D03*
%TD*%
D12*
%TO.C,Q2*%
X112697500Y-45770000D03*
X110797500Y-45770000D03*
X111747500Y-47645000D03*
%TD*%
D13*
%TO.C,R23*%
X148901250Y-42510000D03*
X147251250Y-42510000D03*
%TD*%
%TO.C,R16*%
X63085000Y-125940000D03*
X61435000Y-125940000D03*
%TD*%
%TO.C,R10*%
X139854375Y-42510000D03*
X138204375Y-42510000D03*
%TD*%
D14*
%TO.C,Q12*%
X185690000Y-79430000D03*
X185690000Y-77530000D03*
X183815000Y-78480000D03*
%TD*%
D13*
%TO.C,R4*%
X112713750Y-42510000D03*
X111063750Y-42510000D03*
%TD*%
%TO.C,R15*%
X90855000Y-115633250D03*
X89205000Y-115633250D03*
%TD*%
D15*
%TO.C,Q11*%
X197420636Y-53072500D03*
X199320636Y-53072500D03*
X198370636Y-51197500D03*
%TD*%
D12*
%TO.C,Q7*%
X148902500Y-45770000D03*
X147002500Y-45770000D03*
X147952500Y-47645000D03*
%TD*%
D16*
%TO.C,C7*%
X193655000Y-81450000D03*
X192105000Y-81450000D03*
%TD*%
D17*
%TO.C,U5*%
X196760000Y-81337500D03*
X196760000Y-82607500D03*
X196760000Y-83877500D03*
X196760000Y-85147500D03*
X196760000Y-86417500D03*
X196760000Y-87687500D03*
X196760000Y-88957500D03*
X201710000Y-88957500D03*
X201710000Y-87687500D03*
X201710000Y-86417500D03*
X201710000Y-85147500D03*
X201710000Y-83877500D03*
X201710000Y-82607500D03*
X201710000Y-81337500D03*
%TD*%
D13*
%TO.C,R8*%
X130807500Y-42510000D03*
X129157500Y-42510000D03*
%TD*%
D10*
%TO.C,R29*%
X170240000Y-49490000D03*
X170240000Y-51140000D03*
%TD*%
D12*
%TO.C,Q6*%
X139851250Y-45770000D03*
X137951250Y-45770000D03*
X138901250Y-47645000D03*
%TD*%
D11*
%TO.C,R30*%
X190115000Y-56130000D03*
X191765000Y-56130000D03*
%TD*%
%TO.C,R38*%
X188290000Y-83910000D03*
X189940000Y-83910000D03*
%TD*%
D18*
%TO.C,C8*%
X204765000Y-81450000D03*
X206315000Y-81450000D03*
%TD*%
D11*
%TO.C,R35*%
X192125000Y-85720000D03*
X193775000Y-85720000D03*
%TD*%
%TO.C,R40*%
X188290000Y-88260000D03*
X189940000Y-88260000D03*
%TD*%
D17*
%TO.C,U4*%
X196760000Y-68230000D03*
X196760000Y-69500000D03*
X196760000Y-70770000D03*
X196760000Y-72040000D03*
X196760000Y-73310000D03*
X196760000Y-74580000D03*
X196760000Y-75850000D03*
X201710000Y-75850000D03*
X201710000Y-74580000D03*
X201710000Y-73310000D03*
X201710000Y-72040000D03*
X201710000Y-70770000D03*
X201710000Y-69500000D03*
X201710000Y-68230000D03*
%TD*%
D18*
%TO.C,C5*%
X204765000Y-68190000D03*
X206315000Y-68190000D03*
%TD*%
%TO.C,C1*%
X112160000Y-110090000D03*
X113710000Y-110090000D03*
%TD*%
D13*
%TO.C,R6*%
X121760625Y-42510000D03*
X120110625Y-42510000D03*
%TD*%
D18*
%TO.C,C2*%
X169110000Y-110090000D03*
X170660000Y-110090000D03*
%TD*%
D13*
%TO.C,R14*%
X90855000Y-110090000D03*
X89205000Y-110090000D03*
%TD*%
D11*
%TO.C,R32*%
X197595636Y-56207500D03*
X199245636Y-56207500D03*
%TD*%
D12*
%TO.C,Q5*%
X130800000Y-45770000D03*
X128900000Y-45770000D03*
X129850000Y-47645000D03*
%TD*%
D11*
%TO.C,R33*%
X193770000Y-41900000D03*
X195420000Y-41900000D03*
%TD*%
D16*
%TO.C,C3*%
X141430000Y-110090000D03*
X139880000Y-110090000D03*
%TD*%
D12*
%TO.C,Q4*%
X94595000Y-45770000D03*
X92695000Y-45770000D03*
X93645000Y-47645000D03*
%TD*%
D19*
%TO.C,R31*%
X186330000Y-44270000D03*
X186330000Y-42620000D03*
%TD*%
D13*
%TO.C,R19*%
X147910000Y-115633250D03*
X146260000Y-115633250D03*
%TD*%
%TO.C,R28*%
X166995000Y-42510000D03*
X165345000Y-42510000D03*
%TD*%
D11*
%TO.C,R12*%
X68530000Y-48630000D03*
X70180000Y-48630000D03*
%TD*%
D13*
%TO.C,R2*%
X103666875Y-42510000D03*
X102016875Y-42510000D03*
%TD*%
D14*
%TO.C,Q14*%
X185690000Y-88330000D03*
X185690000Y-86430000D03*
X183815000Y-87380000D03*
%TD*%
D12*
%TO.C,Q9*%
X167005000Y-45770000D03*
X165105000Y-45770000D03*
X166055000Y-47645000D03*
%TD*%
D18*
%TO.C,C6*%
X82960000Y-123840000D03*
X84510000Y-123840000D03*
%TD*%
D13*
%TO.C,R18*%
X147910000Y-110090000D03*
X146260000Y-110090000D03*
%TD*%
D10*
%TO.C,R27*%
X161150000Y-49490000D03*
X161150000Y-51140000D03*
%TD*%
%TO.C,R24*%
X152060000Y-49490000D03*
X152060000Y-51140000D03*
%TD*%
D16*
%TO.C,C4*%
X193655000Y-68190000D03*
X192105000Y-68190000D03*
%TD*%
D11*
%TO.C,R13*%
X68530000Y-53110000D03*
X70180000Y-53110000D03*
%TD*%
D15*
%TO.C,Q10*%
X189870000Y-52710000D03*
X191770000Y-52710000D03*
X190820000Y-50835000D03*
%TD*%
D13*
%TO.C,R26*%
X157948125Y-42510000D03*
X156298125Y-42510000D03*
%TD*%
D11*
%TO.C,R17*%
X112110000Y-115633250D03*
X113760000Y-115633250D03*
%TD*%
D10*
%TO.C,R5*%
X115790000Y-49510000D03*
X115790000Y-51160000D03*
%TD*%
D11*
%TO.C,R22*%
X192055000Y-71960000D03*
X193705000Y-71960000D03*
%TD*%
%TO.C,R20*%
X169060000Y-115633250D03*
X170710000Y-115633250D03*
%TD*%
D10*
%TO.C,R11*%
X142970000Y-49490000D03*
X142970000Y-51140000D03*
%TD*%
D14*
%TO.C,Q13*%
X185690000Y-83880000D03*
X185690000Y-81980000D03*
X183815000Y-82930000D03*
%TD*%
D10*
%TO.C,R7*%
X124880000Y-49510000D03*
X124880000Y-51160000D03*
%TD*%
D13*
%TO.C,R25*%
X94620000Y-42510000D03*
X92970000Y-42510000D03*
%TD*%
D10*
%TO.C,R1*%
X97830000Y-49510000D03*
X97830000Y-51160000D03*
%TD*%
D11*
%TO.C,R21*%
X139830000Y-115633250D03*
X141480000Y-115633250D03*
%TD*%
%TO.C,R34*%
X82790000Y-126800000D03*
X84440000Y-126800000D03*
%TD*%
D12*
%TO.C,Q8*%
X157953750Y-45770000D03*
X156053750Y-45770000D03*
X157003750Y-47645000D03*
%TD*%
M02*
