M48
; DRILL file {KiCad 9.0.5} date 2025-10-29T11:23:45+0900
; FORMAT={-:-/ absolute / metric / decimal}
; #@! TF.CreationDate,2025-10-29T11:23:45+09:00
; #@! TF.GenerationSoftware,Kicad,Pcbnew,9.0.5
; #@! TF.FileFunction,Plated,1,2,PTH
FMAT,2
METRIC
; #@! TA.AperFunction,Plated,PTH,ComponentDrill
T1C0.800
; #@! TA.AperFunction,Plated,PTH,ComponentDrill
T2C0.900
; #@! TA.AperFunction,Plated,PTH,ComponentDrill
T3C1.000
; #@! TA.AperFunction,Plated,PTH,ComponentDrill
T4C1.200
; #@! TA.AperFunction,Plated,PTH,ComponentDrill
T5C1.500
; #@! TA.AperFunction,Plated,PTH,ComponentDrill
T6C1.600
; #@! TA.AperFunction,Plated,PTH,ComponentDrill
T7C2.500
; #@! TA.AperFunction,Plated,PTH,ComponentDrill
T8C2.600
; #@! TA.AperFunction,Plated,PTH,ComponentDrill
T9C2.700
%
G90
G05
T1
X55.49Y-115.28
X55.81Y-93.0
X58.03Y-115.28
X58.35Y-93.0
X60.57Y-115.28
X60.89Y-93.0
X63.11Y-115.28
X63.43Y-93.0
X65.97Y-93.0
X68.51Y-93.0
X71.05Y-93.0
X73.59Y-93.0
X73.74Y-115.17
X73.74Y-118.37
X76.13Y-93.0
X76.24Y-115.17
X76.24Y-118.37
X77.05Y-44.26
X77.05Y-47.46
X78.67Y-93.0
X78.74Y-115.17
X78.74Y-118.37
X79.55Y-44.26
X79.55Y-47.46
X81.21Y-93.0
X82.05Y-44.26
X82.05Y-47.46
X175.485Y-93.0
X178.025Y-93.0
X180.565Y-93.0
X183.105Y-93.0
X184.52Y-127.67
X185.645Y-93.0
X187.06Y-127.67
X188.185Y-93.0
X189.6Y-127.67
X190.725Y-93.0
X192.14Y-127.67
X193.265Y-93.0
X194.68Y-127.67
X195.805Y-93.0
X197.22Y-127.67
X198.345Y-93.0
X200.885Y-93.0
T2
X93.64Y-50.79
X93.64Y-53.33
X102.7Y-50.79
X102.7Y-53.33
X111.76Y-50.79
X111.76Y-53.33
X120.82Y-50.79
X120.82Y-53.33
X129.88Y-50.79
X129.88Y-53.33
X138.94Y-50.79
X138.94Y-53.33
X148.0Y-50.79
X148.0Y-53.33
X157.06Y-50.79
X157.06Y-53.33
X166.12Y-50.79
X166.12Y-53.33
X171.21Y-73.702
X171.21Y-75.861
X171.21Y-78.02
X171.21Y-80.179
X190.91Y-45.137
X190.91Y-47.677
X198.319Y-45.137
X198.319Y-47.677
T3
X56.17Y-107.34
X58.71Y-107.34
X61.25Y-107.34
X94.23Y-110.15
X94.23Y-112.65
X94.23Y-115.15
X102.99Y-87.57
X102.99Y-90.11
X102.99Y-124.9
X102.99Y-127.44
X105.53Y-87.57
X105.53Y-90.11
X105.53Y-124.9
X105.53Y-127.44
X108.07Y-87.57
X108.07Y-90.11
X108.07Y-124.9
X108.07Y-127.44
X108.73Y-110.15
X108.73Y-115.15
X110.61Y-87.57
X110.61Y-90.11
X110.61Y-124.9
X110.61Y-127.44
X113.15Y-87.57
X113.15Y-90.11
X113.15Y-124.9
X113.15Y-127.44
X115.69Y-87.57
X115.69Y-90.11
X115.69Y-124.9
X115.69Y-127.44
X118.23Y-87.57
X118.23Y-90.11
X118.23Y-124.9
X118.23Y-127.44
X120.77Y-87.57
X120.77Y-90.11
X120.77Y-124.9
X120.77Y-127.44
X123.31Y-87.57
X123.31Y-90.11
X123.31Y-124.9
X123.31Y-127.44
X125.85Y-87.57
X125.85Y-90.11
X125.85Y-124.9
X125.85Y-127.44
X128.39Y-87.57
X128.39Y-90.11
X128.39Y-124.9
X128.39Y-127.44
X130.93Y-87.57
X130.93Y-90.11
X130.93Y-124.9
X130.93Y-127.44
X133.47Y-87.57
X133.47Y-90.11
X133.47Y-124.9
X133.47Y-127.44
X136.01Y-87.57
X136.01Y-90.11
X136.01Y-124.9
X136.01Y-127.44
X138.55Y-87.57
X138.55Y-90.11
X138.55Y-124.9
X138.55Y-127.44
X141.09Y-87.57
X141.09Y-90.11
X141.09Y-124.9
X141.09Y-127.44
X143.63Y-87.57
X143.63Y-90.11
X143.63Y-124.9
X143.63Y-127.44
X146.17Y-87.57
X146.17Y-90.11
X146.17Y-124.9
X146.17Y-127.44
X148.71Y-87.57
X148.71Y-90.11
X148.71Y-124.9
X148.71Y-127.44
X151.24Y-110.15
X151.24Y-112.65
X151.24Y-115.15
X151.25Y-87.57
X151.25Y-90.11
X151.25Y-124.9
X151.25Y-127.44
X153.79Y-87.57
X153.79Y-90.11
X153.79Y-124.9
X153.79Y-127.44
X156.33Y-87.57
X156.33Y-90.11
X156.33Y-124.9
X156.33Y-127.44
X165.74Y-110.15
X165.74Y-115.15
X175.955Y-105.96
X178.495Y-105.96
X181.035Y-105.96
T4
X98.02Y-62.02
X100.56Y-62.02
X103.1Y-62.02
X105.64Y-62.02
X108.18Y-62.02
X110.72Y-62.02
X113.26Y-62.02
X115.8Y-62.02
X118.34Y-62.02
X120.88Y-62.02
X123.42Y-62.02
X123.735Y-110.15
X123.735Y-115.15
X125.96Y-62.02
X128.5Y-62.02
X131.04Y-62.02
X133.58Y-62.02
X136.12Y-62.02
X136.235Y-110.15
X136.235Y-115.15
T6
X61.99Y-61.34
X61.99Y-101.84
X79.69Y-61.34
X79.69Y-101.84
T7
X92.521Y-62.02
X92.521Y-93.021
X167.519Y-93.021
X167.52Y-62.02
T8
X57.86Y-51.13
X61.16Y-55.83
T9
X63.96Y-51.13
T5
G00X101.08Y-107.05
M15
G01X102.38Y-107.05
M16
G05
G00X101.08Y-118.25
M15
G01X102.38Y-118.25
M16
G05
G00X158.09Y-107.05
M15
G01X159.39Y-107.05
M16
G05
G00X158.09Y-118.25
M15
G01X159.39Y-118.25
M16
G05
M30
